<?xml version="1.0" standalone="no"?><!DOCTYPE svg PUBLIC "-//W3C//DTD SVG 1.1//EN" "http://www.w3.org/Graphics/SVG/1.1/DTD/svg11.dtd"><svg t="1642226630221" class="icon" viewBox="0 0 1072 1024" version="1.1" xmlns="http://www.w3.org/2000/svg" p-id="2174" xmlns:xlink="http://www.w3.org/1999/xlink" width="209.375" height="200"><defs><style type="text/css"></style></defs><path d="M559.2 4l412 123.2c15.2 4.8 34.4 16 34.4 52.8v368c0 149.6-142.4 304-426.4 463.2-28 16-53.6 19.2-94.4-4C205.6 848.8 65.6 696 65.6 548V189.6c0-44 34.4-63.2 57.6-69.6L505.6 5.6c24.8-7.2 36-6.4 53.6-1.6zM536 278.4c-26.4 0-48 19.2-52 44.8l-0.8 7.2v104.8h-104c-27.2 0-50.4 21.6-52 48.8s17.6 51.2 44.8 55.2l7.2 0.8h104.8v104.8c0 27.2 21.6 50.4 48.8 52s51.2-17.6 55.2-44.8l0.8-7.2V540h104.8c27.2 0 50.4-21.6 52-48.8 1.6-27.2-17.6-51.2-44.8-55.2l-7.2-0.8H588v-104c0-28.8-23.2-52.8-52-52.8z" fill="#196EC9" p-id="2175"></path></svg>